<svg width="13" height="15" viewBox="0 0 13 15" fill="none" xmlns="http://www.w3.org/2000/svg">
<path d="M10.1891 7.96007C10.2101 10.2275 12.1782 10.9821 12.2 10.9917C12.1834 11.0449 11.8855 12.0669 11.1631 13.1227C10.5386 14.0354 9.89049 14.9448 8.86948 14.9636C7.86624 14.9821 7.54364 14.3687 6.39664 14.3687C5.25 14.3687 4.89158 14.9448 3.94189 14.9821C2.95636 15.0195 2.20586 13.9952 1.5762 13.0857C0.289526 11.2255 -0.693761 7.82927 0.626545 5.53673C1.28244 4.39824 2.45459 3.6773 3.72684 3.65881C4.69461 3.64035 5.60805 4.3099 6.19968 4.3099C6.79094 4.3099 7.90096 3.50471 9.06792 3.62296C9.55644 3.6433 10.9278 3.8203 11.8083 5.1092C11.7373 5.15318 10.1721 6.06442 10.1891 7.96007ZM8.30358 2.39228C8.82681 1.75894 9.17897 0.877261 9.0829 0C8.3287 0.0303122 7.41672 0.502573 6.87575 1.13557C6.39094 1.69612 5.96636 2.59331 6.08092 3.45321C6.92156 3.51825 7.78033 3.02603 8.30358 2.39228Z" fill="black"/>
</svg>
