<svg width="27" height="22" viewBox="0 0 27 22" fill="none" xmlns="http://www.w3.org/2000/svg">
<path d="M22.4814 14.6152C24.783 14.6154 26.6357 16.4424 26.6357 18.6797V21.6357H19.8154L19.8417 17.7129V17.7109C19.8417 16.4851 19.9764 15.7397 20.33 15.2891C20.6625 14.8655 21.2659 14.6152 22.4814 14.6152ZM13.499 12.0977C16.589 12.0977 19.0857 14.5655 19.0859 17.5996V21.6357H7.914V18.6797C7.914 18.629 7.91328 18.578 7.91302 18.5273V17.5996C7.91324 14.5657 10.4091 12.0979 13.499 12.0977ZM4.77142 14.4766C5.34345 14.4766 5.75842 14.5983 6.06537 14.791C6.37108 14.9831 6.59754 15.2639 6.76556 15.6309C7.0969 16.3545 7.17922 17.3639 7.18549 18.5273V21.6357H0.36615L0.391541 17.7129V17.7109C0.391541 16.6185 0.885685 15.8275 1.66791 15.2959C2.46442 14.7547 3.57274 14.4766 4.77142 14.4766ZM4.57416 4.76367C6.02102 4.76378 7.18531 5.91897 7.18549 7.33301C7.18549 8.74719 6.02113 9.90223 4.57416 9.90234C3.12709 9.90234 1.96283 8.74726 1.96283 7.33301C1.96301 5.9189 3.1272 4.76367 4.57416 4.76367ZM22.4247 4.76367C23.8717 4.76367 25.0359 5.9189 25.0361 7.33301C25.0361 8.74726 23.8718 9.90234 22.4247 9.90234C20.9778 9.90225 19.8134 8.7472 19.8134 7.33301C19.8136 5.91896 20.9779 4.76377 22.4247 4.76367ZM13.499 0.364258C15.7676 0.364258 17.5986 2.17612 17.5986 4.40039C17.5984 6.62448 15.7675 8.43652 13.499 8.43652C11.2307 8.43627 9.40054 6.62433 9.40033 4.40039C9.40033 2.17628 11.2305 0.364512 13.499 0.364258Z" fill="#867AFF" stroke="#867AFF" stroke-width="0.727678"/>
</svg>
