<svg width="20" height="20" viewBox="0 0 20 20" fill="none" xmlns="http://www.w3.org/2000/svg">
<path d="M10.7949 9.68008L13.2591 7.21591L5.29992 2.74258C4.77242 2.45758 4.27825 2.41758 3.84492 2.72925L10.7949 9.68008ZM13.6791 12.5651L16.2408 11.1242C16.7408 10.8442 17.0149 10.4476 17.0149 10.0076C17.0149 9.56841 16.7408 9.17091 16.2416 8.89091L13.9224 7.58841L11.3116 10.1984L13.6791 12.5651ZM3.41659 3.33508C3.36325 3.49925 3.33325 3.68258 3.33325 3.88341V16.1376C3.33325 16.4551 3.40325 16.7284 3.52992 16.9459L10.2774 10.1976L3.41659 3.33508ZM10.7949 10.7142L4.08492 17.4251C4.21325 17.4742 4.35159 17.5001 4.49742 17.5001C4.75742 17.5001 5.02825 17.4234 5.30408 17.2701L13.0166 12.9392L10.7949 10.7142Z" fill="white"/>
</svg>
