<svg width="236" height="212" viewBox="0 0 236 212" fill="none" xmlns="http://www.w3.org/2000/svg">
<path d="M13.6526 210.209C37.8293 165.668 52.772 142.528 85.2752 111.543C85.8098 111.033 86.5902 110.854 87.2908 111.088L94.97 113.648C95.0915 113.688 95.2087 113.74 95.3202 113.803L114.12 124.408C114.467 124.604 114.748 124.899 114.926 125.256L126.653 148.709M82.1526 120.709H86.1526" stroke="black" stroke-width="3" stroke-linecap="round"/>
<path d="M128.153 135.709C130.392 122.741 128.342 116.638 119.153 107.709L111.153 121.209C117.166 129.382 120.751 133.146 128.153 135.709Z" fill="#DEDEDE" stroke="black" stroke-width="2" stroke-linecap="round"/>
<path d="M11.653 82.7089C-6.84103 105.118 -3.70406 152.481 40.6531 162.209L104.653 98.7089C110.252 97.6182 112.22 95.4613 113.153 88.2089C103.599 89.5424 98.0402 86.8111 87.6531 75.2089C94.126 68.3535 95.7109 62.4879 92.1531 45.7089C106.624 41.506 112.4 35.6658 118.653 19.2089H125.153L113.153 12.7089C103.051 9.55087 96.05 11.2586 87.183 17.3598C84.1287 19.4613 80.8531 22.0842 77.1531 25.2089L57.1531 45.7089C32.7279 61.282 30.1471 60.3003 11.653 82.7089Z" fill="black"/>
<path d="M86.1526 20.7089C87.0825 16.1846 89.1526 13.7089 91.9027 10.9589C95.0492 7.39743 102.153 6.20885 102.153 6.20885C102.153 6.20885 122.87 4.38454 123.153 6.20885C136.524 9.73807 138.945 20.0329 142.153 40.2089C147.357 41.668 153.153 45.2089 150.653 58.7089C148.153 72.2089 143.523 73.9884 136.653 73.2089M40.6531 162.209C-3.70406 152.481 -6.84103 105.118 11.653 82.7089C30.1471 60.3003 32.7279 61.282 57.1531 45.7089L77.1531 25.2089C91.5947 13.0124 99.5717 8.46306 113.153 12.7089L125.153 19.2089H118.653C112.4 35.6658 106.624 41.506 92.1531 45.7089C95.7109 62.4879 94.126 68.3535 87.6531 75.2089C98.0402 86.8111 103.599 89.5424 113.153 88.2089C112.22 95.4613 110.252 97.6182 104.653 98.7089L40.6531 162.209Z" stroke="black" stroke-width="2" stroke-linecap="round"/>
<path d="M82.6449 18.5723C84.5381 14.0439 86.5658 10.61 89.7565 7.53616C95.4569 2.04454 116.45 -1.36302 109.821 2.96179C105.366 5.86766 98.5632 6.357 95.0929 10.3871C92.0966 13.8669 90.8911 17.5445 89.2254 22.2086C87.7992 26.2022 86.9713 29.7439 86.4604 33.3286C85.7764 38.1281 89.8522 41.6959 93.1703 45.2304C94.2877 46.4207 94.8197 48.0631 94.9741 49.6883C95.6943 57.2693 95.6527 61.1317 95.1912 64.9795C94.9333 67.1296 93.8193 70.3157 92.7244 72.184C90.5516 75.8915 86.9891 76.9757 82.6976 76.7551C81.5962 76.6984 80.6869 76.5141 79.7254 76.2086C76.5326 74.9589 74.6272 73.6584 73.1171 71.8604C70.7738 69.0703 69.6995 65.419 69.3248 61.7946C68.7473 56.2087 69.6591 52.3975 71.5083 47.6731C72.269 45.7298 73.7299 44.0629 75.4853 42.9344C78.1996 41.1895 79.8825 38.3234 80.1505 35.1078L80.9013 26.0986C81.1164 23.5171 81.6456 20.9622 82.6449 18.5723Z" fill="white" stroke="black" stroke-width="2" stroke-linecap="round"/>
<path d="M71.6526 134.209H88.6526" stroke="black" stroke-width="3" stroke-linecap="round"/>
<path d="M109.153 135.709H115.153" stroke="black" stroke-width="3" stroke-linecap="round"/>
<path d="M63.1526 148.209H118.153" stroke="black" stroke-width="3" stroke-linecap="round"/>
<path d="M54.1526 162.709H112.153" stroke="black" stroke-width="3" stroke-linecap="round"/>
<path d="M45.1218 178.459H96.1831" stroke="black" stroke-width="3" stroke-linecap="round"/>
<path d="M36.0618 196.459H89.1822" stroke="black" stroke-width="3" stroke-linecap="round"/>
<path d="M173.653 163.709L126.153 161.209L138.653 87.7086L234.653 91.7086L223.153 163.709H190.653M190.653 163.709L194.653 136.209L190.653 126.709M190.653 163.709L185.977 193.709M184.653 202.209L185.977 193.709M185.977 193.709H206.653L203.153 209.209" stroke="black" stroke-width="2" stroke-linecap="round"/>
<path d="M196.153 123.709C191.153 105.209 171.153 104.709 164.653 123.709" stroke="black" stroke-width="2" stroke-linecap="round"/>
<path d="M174.653 142.209C167.084 137.801 164.734 134.138 164.153 125.209" stroke="black" stroke-width="3" stroke-linecap="round"/>
<path d="M170.153 193.209H149.153M149.153 193.209L146.153 208.209M149.153 193.209L126.153 198.709L123.153 208.209" stroke="black" stroke-width="3" stroke-linecap="round"/>
<path d="M123.153 10.2086C131.854 15.0234 134.094 19.8069 135.153 30.7086" stroke="black" stroke-width="2" stroke-linecap="round"/>
<path d="M158.153 11.2086L164.653 2.70859" stroke="black" stroke-width="2" stroke-linecap="round"/>
<path d="M165.653 21.7086L175.653 15.7086" stroke="black" stroke-width="2" stroke-linecap="round"/>
<path d="M172.153 33.7086L178.653 31.7086" stroke="black" stroke-width="2" stroke-linecap="round"/>
<path d="M173.153 174.208C164.593 170.575 159.781 169.561 151.153 172.208L150.153 174.208L151.153 181.208C152.088 186.07 153.79 188.434 158.653 192.208H165.653L160.653 187.208C159.433 184.342 160.459 183.902 163.153 183.708L170.153 192.208H186.653H189.653L187.653 187.208L193.153 190.208C195.17 189.66 195.05 188.871 194.153 187.208C189.824 180.877 183.42 178.614 173.153 174.208Z" stroke="black" stroke-width="2" stroke-linecap="round"/>
<path d="M93.1524 139.209C92.6353 120.377 94.7873 111.043 109.577 104.659C106.654 105.812 105.405 105.82 97.1524 112.709C91.9865 111.605 89.4535 110.231 86.6524 104.209C84.5308 95.4117 85.3335 91.5769 91.1524 87.2086C95.5605 94.5057 98.6306 97.44 105.152 100.209C110.01 98.8282 111.755 96.4516 113.652 90.2086C118.134 95.9901 118.943 100.282 117.152 110.209C107.713 130.378 102.502 130.839 93.1524 139.209Z" fill="#DEDEDE" stroke="black" stroke-width="2" stroke-linecap="round"/>
<path d="M176.153 125.709L180.153 135.709L176.153 160.709" stroke="black" stroke-width="5" stroke-linecap="round"/>
<path d="M169.777 204.163L176.529 162.254" stroke="black" stroke-width="3" stroke-linecap="round"/>
<path d="M102.653 46.7086C107.107 42.396 109.506 42.7915 113.653 46.7086" stroke="black" stroke-width="2" stroke-linecap="round"/>
<rect x="104.153" y="46.7086" width="4" height="5" rx="2" fill="black"/>
<path d="M120.153 47.7965C124.607 43.4839 127.006 43.8794 131.153 47.7965" stroke="black" stroke-width="2" stroke-linecap="round"/>
<rect x="121.653" y="47.7965" width="4" height="5" rx="2" fill="black"/>
<path d="M134.153 39.2084C125.27 37.6254 121.672 39.5149 118.153 48.7084V59.7084L120.653 63.7084C120.64 65.6086 119.854 66.2417 118.153 67.2084" stroke="black" stroke-width="2" stroke-linecap="round"/>
<path d="M110.653 35.7086L114.153 37.2086" stroke="black" stroke-width="2" stroke-linecap="round"/>
<path d="M110.653 72.2086C111.303 74.5405 112.002 75.3874 113.653 76.2086C116.672 76.2007 117.187 75.1102 118.153 73.2086" stroke="black" stroke-width="4" stroke-linecap="round"/>
<path d="M121.16 16.7086C136.933 29.0203 138.176 42.0899 136.675 58.6654C135.173 75.241 127.481 83.4386 113.153 88.7086" stroke="black" stroke-width="2" stroke-linecap="round"/>
<path d="M134.153 195.477L135.653 197.477L137.653 196.477C137.653 196.477 138.574 195.919 138.653 194.477L135.653 190.977L131.653 186.977C129.843 185.134 128.548 184.5 126.153 183.477H128.153C131.395 184.498 133.188 185.297 136.153 188.477C137.883 189.718 139.222 190.869 141.653 192.977C142.463 193.207 142.996 193.243 144.153 192.977C144.582 192.736 144.535 192.105 144.153 190.477C143.587 189.033 142.673 187.737 138.653 183.477C135.437 180.398 132.842 179.001 127.153 176.977C132.365 176.331 135.945 176.984 144.153 180.977C146.335 180.992 147.103 180.662 145.653 177.977C139.377 171.803 134.702 169.946 123.153 170.977C108.453 176.539 99.8387 186.657 99.1526 198.977C100.758 201.055 102.592 202.046 107.153 203.477C109.161 203.995 110.362 203.957 112.653 203.477C114.348 203.015 115.243 202.479 116.653 200.977C118.431 198.534 119.457 197.367 121.153 195.477C122.139 194.182 122.572 193.643 123.153 192.977L125.153 194.477L128.153 197.477L130.153 198.977C131.061 199.281 131.583 199.377 132.653 198.977C133.291 198.975 133.631 198.778 134.153 197.977M134.153 195.477L131.653 192.977L128.153 189.477L125.153 186.977H123.153L134.153 195.477Z" stroke="black" stroke-width="2" stroke-linecap="round"/>
<path d="M100.963 207.609C99.313 206.65 98.8725 203.597 99.313 198.977L107.153 203.773C105.067 207.77 102.614 208.568 100.963 207.609Z" fill="black" stroke="black" stroke-linecap="round"/>
</svg>
