<svg width="229" height="254" viewBox="0 0 229 254" fill="none" xmlns="http://www.w3.org/2000/svg">
<path d="M187 216.5C191.488 226.894 193.721 232.906 192.5 247" stroke="black" stroke-width="2"/>
<path d="M164 220L166 217.5L166.5 216.5L167 217L169 220L170.5 223.5L172 229.5L172.5 234.5L171.5 233L164 220Z" fill="black" stroke="black" stroke-width="2"/>
<path d="M129.5 144.003L128 159.503L140 147.503" stroke="black" stroke-width="2"/>
<path d="M128.5 204.503L144 145.003" stroke="black" stroke-width="2"/>
<path d="M144 145.003L150 165.503" stroke="black" stroke-width="3"/>
<path d="M94.2152 14.5004C96.9682 14.2225 97.7145 15.0569 97.7152 18.0004C96.0116 29.9686 94.0445 41.4735 94.2152 51.0029L77.0005 56.5029L50.0005 31.0029C47.7403 27.0522 47.798 25.8773 52.0005 27.0029L66.5005 34.0029L53.0005 20.5029C50.8814 17.3701 51.3744 16.8313 54.5005 17.5029L70.5005 28.5029L59.0005 10.5029C57.5559 6.95367 58.2401 6.43104 61.5005 7.50287L76.0005 21.5029L69.0005 4.50287C68.8808 0.788585 69.8365 1.03099 72.0005 2.50287L85.0005 30.0029L88.0005 21.5029C90.0442 17.609 92.3381 15.5578 94.2152 14.5004Z" fill="#E0E0E0"/>
<path d="M150.001 165.003L165.001 147.003C194.227 165.851 206.382 178.808 216.501 208.503C217.635 218.75 217.477 224.02 214.001 231.503C208.169 242.148 203.799 244.635 195.501 247.503H172.001C173.09 235.121 172.534 228.29 167.501 216.503L195.501 208.503M107.001 168.003C88.0424 138.729 76.1417 123.108 70.5005 85.5029M70.5005 85.5029L91.5005 75.5029M70.5005 85.5029L65.0005 61.5029L91.5005 52.0029M129.501 137.503C106.999 106.29 94.8197 84.7479 94.2152 51.0029M94.2152 51.0029C94.0445 41.4735 96.0116 29.9686 97.7152 18.0004C97.7145 15.0569 96.9682 14.2225 94.2152 14.5004C92.3381 15.5578 90.0442 17.609 88.0005 21.5029L85.0005 30.0029L72.0005 2.50287C69.8365 1.03099 68.8808 0.788585 69.0005 4.50287L76.0005 21.5029L61.5005 7.50287C58.2401 6.43104 57.5559 6.95366 59.0005 10.5029L70.5005 28.5029L54.5005 17.5029C51.3744 16.8313 50.8814 17.3701 53.0005 20.5029L66.5005 34.0029L52.0005 27.0029C47.798 25.8773 47.7403 27.0522 50.0005 31.0029L77.0005 56.5029L94.2152 51.0029Z" stroke="black" stroke-width="3"/>
<path d="M144.5 222.503L136 231.389M136 231.389L133.5 234.003C129.814 234.298 128.714 233.826 129 231.503L140 219.503L130 228.003C127.573 227.426 127.208 226.734 128 225.003L137 215.503L136 213.503L129 218.003L126.5 218.503C124.843 219.118 125.041 217.993 126.5 214.503L132.5 208.503C138.55 206.959 141.951 206.785 148 208.503C158.904 214.878 162.741 220.288 169.5 230.003L170.5 248.503L164.5 240.503C164.621 238.393 164.636 236.907 164.226 235.503M136 231.389C135.924 234.161 136.806 234.645 140 234.003L146.5 228.003L151.5 232.503L163 233.003C163.598 233.881 163.986 234.677 164.226 235.503M67 244.003L57.5 176.003H120L129 234.003L164.226 235.503" stroke="black" stroke-width="3"/>
<path d="M90.3845 202.08C90.7031 201.315 90.3414 200.437 89.5767 200.118C88.812 199.8 87.9338 200.161 87.6152 200.926L88.9998 201.503L90.3845 202.08ZM88.9998 201.503L87.6152 200.926C85.0526 207.077 85.5889 211.828 88.6348 213.978C91.6612 216.115 95.8878 214.78 98.6522 211.463L97.4998 210.503L96.3475 209.543C94.1118 212.225 91.5885 212.391 90.3649 211.527C89.161 210.678 87.9473 207.929 90.3845 202.08L88.9998 201.503Z" fill="black"/>
<path d="M94.8343 200.214C94.2823 200.196 93.8202 200.628 93.8023 201.18C93.7843 201.732 94.2172 202.194 94.7692 202.212L94.8017 201.213L94.8343 200.214ZM94.8017 201.213L94.7692 202.212C96.9668 202.284 98.3879 203.546 98.7348 205.239C99.0899 206.973 98.3756 209.48 95.5337 212.012L96.1988 212.758L96.8639 213.505C100.042 210.674 101.238 207.494 100.694 204.838C100.142 202.141 97.854 200.312 94.8343 200.214L94.8017 201.213Z" fill="black"/>
<path d="M138.178 141.622C140.334 142.36 142.22 141.953 144.838 141.021L145.343 140.806C143.862 140.804 142.821 140.685 142.166 140.125C140.618 138.802 142.92 136.862 144.094 135.197C144.781 134.224 144.579 132.884 143.865 131.931C143.823 131.875 143.78 131.818 143.735 131.759C143.149 130.991 142.359 130.361 141.412 130.17C140.674 130.021 139.778 129.971 138.278 130.023C137.181 130.073 136.424 130.438 135.505 131.396C134.596 132.344 133.896 133.462 133.625 134.748C133.006 137.69 135.333 140.647 138.178 141.622Z" fill="black"/>
<path d="M162.5 133.496C155.747 139.105 151.983 141.298 145.343 140.806M145.343 140.806L144.838 141.021C142.22 141.953 140.334 142.36 138.178 141.622C135.333 140.647 133.006 137.69 133.625 134.748C133.896 133.462 134.596 132.344 135.505 131.396C136.424 130.438 137.181 130.073 138.278 130.023C139.778 129.971 140.674 130.021 141.412 130.17C142.359 130.361 143.149 130.991 143.735 131.759C143.78 131.818 143.823 131.875 143.865 131.931C144.579 132.884 144.781 134.224 144.094 135.197C142.92 136.862 140.618 138.802 142.166 140.125C142.821 140.685 143.862 140.804 145.343 140.806Z" stroke="black" stroke-width="2" stroke-linecap="round"/>
<path d="M138.309 68.5039C138.515 63.6209 138.878 60.9281 140.301 56.5043C147.535 65.0729 151.897 68.3691 159.722 74.0038L156.237 75.5037V76.5037L157.233 77.0037L161.714 75.5037H167.192L173.168 78.0037C173.579 81.4884 173.703 83.2987 173.168 85.5034L176.156 90.0033L177.152 104.003H182.131C186.043 101.986 187.813 100.082 190.597 96.0031C203.252 93.6411 208.245 89.3292 213.504 76.5037C214.229 71.7895 214.399 69.0296 214.5 64.0041C212.868 57.9819 211.533 54.9761 208.026 50.5045C202.82 44.7394 174.997 42.7214 169.184 39.5048C163.371 36.2882 147.643 29.8659 141.795 30.0051C132.868 31.7 126.358 34.505 121.378 42.5047C116.399 50.5045 117.769 69.1112 126.358 78.5036C129.76 73.7188 131.624 71.6755 134.824 69.5039L138.309 68.5039Z" fill="black" stroke="black" stroke-linecap="round"/>
<path d="M132 92.0029C127.576 91.5103 126.223 88.9232 126.5 79.0029C127.565 77.2111 129.501 75.5029 130 74.5029C130.5 73.5029 131.528 71.3365 133 71.0029L138 68.5029L141 57.5029L159 74.0029L156.5 75.5029V76.5029L158.5 77.5029L165 73.5029L167 75.5029L173 79.0029V85.5029L176.5 90.5029V98.5029C174.34 107.689 173 111.003 169 117.003C165 123.003 158.134 129.612 147 128.503C138.596 126.487 133.001 123.003 132 114.003C131 105.003 132 92.0029 132 92.0029Z" fill="#E3E3E3" stroke="black" stroke-width="2" stroke-linecap="round"/>
<path d="M132 92.5025L137 71.0025C141.578 67.6248 148.5 72.5021 151 78.0025C153.5 83.5029 151.844 91.5753 149 96.5025" stroke="black" stroke-width="2" stroke-linecap="round"/>
<path d="M148 86.0029C149 84.0029 147 80.5029 144 79.5029L142.5 83.5029C142.117 85.3635 142.316 86.3563 144 88.0029C144 88.0029 147 88.0029 148 86.0029Z" fill="black"/>
<path d="M138.5 83.5029C139.71 81.0239 141 80.2325 144 79.5029M144 79.5029C147 80.5029 149 84.0029 148 86.0029C147 88.0029 144 88.0029 144 88.0029C142.316 86.3563 142.117 85.3635 142.5 83.5029C143.086 81.9408 143.414 81.065 144 79.5029Z" stroke="black" stroke-linecap="round"/>
<path d="M166 87.5029C167 85.5029 165 82.0029 162 81.0029L160.5 85.0029C160.117 86.8635 160.316 87.8563 162 89.5029C162 89.5029 165 89.5029 166 87.5029Z" fill="black"/>
<path d="M156.5 85.0029C157.71 82.5239 159 81.7325 162 81.0029M162 81.0029C165 82.0029 167 85.5029 166 87.5029C165 89.5029 162 89.5029 162 89.5029C160.316 87.8563 160.117 86.8635 160.5 85.0029C161.086 83.4408 161.414 82.565 162 81.0029Z" stroke="black" stroke-linecap="round"/>
<path d="M144 107.003C144.485 110.578 145.5 112.503 148 113.003C150.5 113.503 152.817 111.348 154 108.003" stroke="black" stroke-width="4" stroke-linecap="round"/>
<path d="M181.776 90.1229C180.871 94.932 179.635 97.4377 177.646 101.963L178.293 103.921L179.789 103.809C181.096 104.017 182.056 103.781 184.202 102.477C185.609 100.485 186.43 99.2406 188.63 94.625C189.497 92.7126 189.808 91.3267 189.604 87.5327C187.609 83.9581 186.161 82.5586 182.214 82.5693C182.305 84.9013 182.262 86.4371 181.776 90.1229Z" fill="#D9D9D9" stroke="black" stroke-linecap="round"/>
<circle cx="128" cy="186.503" r="1.5" fill="black"/>
<circle cx="132" cy="173.503" r="1.5" fill="black"/>
<circle cx="136" cy="160.503" r="1.5" fill="black"/>
<path d="M181.501 17.5029C175.035 23.8946 171.002 35.003 174.001 36.0029C177 37.0029 181.408 33.777 185.501 26.0029C187.801 21.2763 187 18.5029 185.501 17.5029C184.002 16.503 183.434 16.8252 181.501 17.5029Z" fill="black" stroke="black" stroke-width="2"/>
<path d="M223.5 107.503C218.869 107.277 216.621 107.932 213 110.003L215.5 112.503C218.915 114.255 220.593 114.134 223.5 113.503C225.435 113.046 226.015 112.577 226.5 111.503C226.761 109.235 225.944 108.435 223.5 107.503Z" stroke="black" stroke-width="2"/>
<path d="M225.543 125.006C222.08 123.109 220.158 122.675 216.74 122.621L217.858 125.159C219.911 127.568 221.23 128.127 223.648 128.826C225.27 129.268 225.86 129.189 226.57 128.689C227.485 127.344 227.114 126.525 225.543 125.006Z" stroke="black" stroke-width="2"/>
<path d="M57 53.0029C33.89 70.8999 24.9609 86.0719 16.5 122.503M51 48.0029C33.5703 61.6296 25.5636 71.4668 16.5 95.5029" stroke="black" stroke-width="2"/>
<ellipse cx="77.5" cy="70.0029" rx="2" ry="3" fill="black"/>
<path d="M15.5 193.003C5.47119 176.758 7.70198 169.9 21.5 160.503C30.2415 155.782 34.1319 153.153 38 148.503C49.0557 136.504 58.5 136.503 66.5 142.503C74.5 148.502 72.9843 164.532 65.5 175M58.5 186C52.7273 190.973 47.6471 193.164 43.5 193.003" stroke="black" stroke-width="2"/>
<path d="M42.9991 228.503C43.9981 213.503 43.9991 196.003 43.9991 196.003H12.9991V228.503C12.9991 245.003 42 243.503 42.9991 228.503Z" fill="black" stroke="black" stroke-width="2"/>
<path d="M1 209.003C3.83938 200.157 6.62573 198.203 12.5 197.003V202.503C8.35979 202.408 6.50536 203.738 4.5 210.003V219.503C5.67098 222.815 6.49984 224.093 8.5 224.503H12.5V228.503H7.5C4.59983 226.817 3.06458 225.51 1 220.503V209.003Z" fill="#110000" stroke="black" stroke-width="2"/>
<path d="M182.5 206.003L188 201.003" stroke="black" stroke-width="2"/>
<circle cx="181" cy="230.503" r="1.5" fill="black"/>
</svg>
