<svg width="244" height="220" viewBox="0 0 244 220" fill="none" xmlns="http://www.w3.org/2000/svg">
<path d="M50.908 109.065C46.8385 104.71 45.6569 101.946 45.908 96.5654L37.908 101.065C33.6521 101.338 32.4916 100.93 32.908 99.0654L44.908 91.0654L33.908 94.0654C31.6353 93.0259 31.3348 92.3403 31.408 91.0654C35.8669 88.1077 38.0901 87.3649 41.908 86.5654C38.0416 86.6622 35.7791 86.9934 31.408 88.5654C29.6744 87.7581 29.6069 87.1773 30.908 86.0654C32.9356 84.5791 34.2439 83.7662 38.908 82.5654L41.408 81.0654C40.5909 79.1368 40.3878 78.1637 43.908 78.0654C43.8925 76.4988 43.6354 75.5748 41.408 73.5654L35.908 68.0654C34.9642 65.8766 34.8174 64.8743 37.908 65.0654C49.7943 68.21 54.4797 72.0977 61.408 80.5654C64.7172 89.6809 63.3572 95.1736 60.9585 104.862L60.908 105.065L50.908 109.065Z" fill="#CCCCCC"/>
<path d="M41.408 81.0654L38.908 82.5654C34.2439 83.7662 32.9356 84.5791 30.908 86.0654C29.6069 87.1773 29.6744 87.7581 31.408 88.5654C35.7791 86.9934 38.0416 86.6622 41.908 86.5654C38.0901 87.3649 35.8669 88.1077 31.408 91.0654C31.3348 92.3403 31.6353 93.0259 33.908 94.0654L44.908 91.0654L32.908 99.0654C32.4916 100.93 33.6521 101.338 37.908 101.065L45.908 96.5654C45.6569 101.946 46.8385 104.71 50.908 109.065L60.908 105.065M41.408 81.0654C40.5909 79.1368 40.3878 78.1637 43.908 78.0654M41.408 81.0654L51.408 87.0654V95.5654C53.2925 98.5899 54.408 99.0654 56.908 101.565C59.408 104.065 60.908 105.065 60.908 105.065M43.908 78.0654L54.408 81.0654M43.908 78.0654C43.8925 76.4988 43.6354 75.5748 41.408 73.5654L35.908 68.0654C34.9642 65.8766 34.8174 64.8743 37.908 65.0654C49.7943 68.21 54.4797 72.0977 61.408 80.5654C64.7403 89.7447 63.3379 95.2503 60.908 105.065" stroke="black" stroke-width="2"/>
<path d="M139.409 82.5654C137.51 73.0159 137.713 67.5606 141.909 57.5654L144.909 53.0654L146.409 50.5654L147.909 49.0654L150.409 47.5654L152.409 45.5654L155.409 44.0654L159.909 41.5654L162.909 40.5654L163.909 42.5654L165.409 44.0654L167.409 45.5654L169.409 46.5654H171.909L173.909 45.5654H175.909V47.5654V49.0654L177.409 50.5654L178.909 52.0654H181.409L183.909 53.0654H185.409L187.409 52.0654V57.0654L187.909 58.5654L190.409 61.0654H192.909H194.409V71.0654V73.0654V74.5654L192.909 75.5654L190.409 76.5654L189.409 77.5654V78.5654L190.409 80.5654L191.409 82.5654L192.909 83.5654L194.409 82.5654L196.909 81.5654H198.909H200.909L202.909 82.5654L203.909 83.5654L204.909 86.0654V89.0654L202.909 94.0654L198.909 99.5654L195.409 101.065H192.909H189.409L187.909 97.0654C179.654 104.096 174.033 105.718 161.909 103.565C148.438 99.2588 143.058 95.0199 139.409 82.5654Z" fill="#C9C9C9" stroke="black"/>
<path d="M166.408 111.565C169.16 118.719 171.706 120.52 177.408 121.065M107.408 200.565C111.766 208.022 112.259 212.063 109.408 219.065M140.408 214.065L120.408 207.565L116.908 166.565L136.908 173.565L140.408 214.065ZM140.408 214.065L143.908 217.565H146.408L148.908 215.065M139.408 175.565H142.408L143.908 173.565L144.908 173.326M148.908 215.065L170.908 210.065L166.908 168.065L144.908 173.326M148.908 215.065L144.908 173.326" stroke="black" stroke-width="2"/>
<path d="M138.08 176.27L136.682 174.872C136.511 174.701 136.511 174.425 136.682 174.254C136.799 174.137 136.972 174.096 137.129 174.148L139.341 174.886C139.667 174.994 140.026 174.91 140.269 174.667L140.292 174.644C140.345 174.59 140.407 174.546 140.475 174.512C141.083 174.208 141.728 174.853 141.424 175.46L141.129 176.051C140.972 176.365 140.651 176.563 140.3 176.563H138.787C138.522 176.563 138.267 176.458 138.08 176.27Z" fill="black"/>
<path d="M167.908 177.065C176.343 179.072 178.425 182.351 177.908 191.565L180.908 193.065C182.37 194.437 182.908 195.065 182.908 196.565C182.908 198.065 177.912 203.227 173.908 206.065H170.908L169.908 198.565L176.908 198.065L165.908 198.565C163.334 197.99 163.455 197.049 164.408 195.065C156.94 197.446 156.608 197.392 155.908 197.065C155.908 197.065 154.585 197.259 154.408 196.065C154.259 195.058 162.726 189.53 165.828 187.971L154.908 192.065C154.908 192.065 151.899 192.04 152.908 190.065C157.439 186.473 160.359 184.645 166.908 182.065H152.908C151.247 181.283 151.308 180.855 152.908 180.065C157.708 178.109 161.036 177.484 167.908 177.065Z" fill="#CDCDCD"/>
<path d="M164.408 195.065C156.94 197.446 156.608 197.392 155.908 197.065C155.908 197.065 154.585 197.259 154.408 196.065C154.232 194.872 166.133 187.344 166.908 187.565L154.908 192.065C154.908 192.065 151.899 192.04 152.908 190.065C157.439 186.473 160.359 184.645 166.908 182.065H152.908C151.247 181.283 151.308 180.855 152.908 180.065C157.708 178.109 161.036 177.484 167.908 177.065C176.343 179.072 178.425 182.351 177.908 191.565L180.908 193.065M164.408 195.065L168.908 193.065C173.592 191.95 176.222 192.161 180.908 193.065M164.408 195.065C163.455 197.049 163.334 197.99 165.908 198.565L176.908 198.065L169.908 198.565L170.908 206.065H173.908C177.912 203.227 182.908 198.065 182.908 196.565C182.908 195.065 182.37 194.437 180.908 193.065" stroke="black" stroke-width="1.5"/>
<path d="M140.408 101.065C141.61 98.3378 143.603 97.1666 146.908 97.0654L166.408 104.565C163.373 107.591 161.338 109.366 157.908 110.065C154.479 110.765 150.998 110.725 148.908 110.065C146.818 109.406 138.459 105.49 140.408 101.065Z" fill="black" stroke="black" stroke-width="2"/>
<path d="M139.908 100.565C133.175 107.86 132.301 112.626 136.908 122.565C117.779 119.559 105.269 116.152 81.9081 109.065C56.8334 104.915 46.3965 106.571 36.9081 119.565C32.4257 133.359 32.4044 141.2 40.9081 155.565" stroke="black" stroke-width="3"/>
<path d="M34.408 138.565C42.057 137.426 45.1936 135.064 48.908 128.065M58.908 115.065C58.2551 124.647 59.5325 128.993 66.908 133.565M86.408 128.065C83.9263 137.126 80.9372 140.695 71.908 143.565M77.908 153.565C84.8966 158.026 87.9598 161.751 91.908 170.565M96.908 115.065C98.9622 122.556 101.293 126.059 108.408 130.565M121.908 142.065C112.264 146.821 109.421 151.175 108.408 161.565M137.908 135.565C145.3 128.767 147.82 124.857 146.908 117.565M85.908 200.565C89.9592 187.995 94.4019 183.909 107.408 183.565M131.908 150.065C140.133 148.178 143.913 150.443 149.908 157.565M164.908 132.565C159.472 138.89 158.529 143.032 160.908 151.565M175.408 169.065C182.282 163.624 184.985 159.883 182.908 149.065" stroke="black" stroke-width="3"/>
<path d="M188.408 178.565C194.61 185.562 194.664 189.764 189.408 197.565M195.408 163.565C199.503 169.981 202.307 172.142 208.408 172.565M193.408 207.065C213.755 185.379 212.624 171.92 197.408 146.565C188.116 135.748 182.52 131.903 171.408 131.565C179.452 121.57 179.216 116.546 174.908 108.065" stroke="black" stroke-width="3"/>
<path d="M148.563 81.2432C148.645 83.4557 149.187 84.4861 151.267 85.8997C154.869 86.3444 156.02 85.339 157.975 83.3989" stroke="black" stroke-width="2"/>
<path d="M141.908 57.0651C149.183 46.876 153.748 43.128 162.908 40.5651L164.408 43.0651C165.915 45.538 167.532 46.091 170.908 46.5651C171.926 46.0963 173.012 45.8508 175.908 45.5651V48.5651C176.853 50.5077 177.871 51.2843 180.408 52.0651C183.14 53.0148 184.674 52.9906 187.408 52.0651V57.0651C188.183 58.7753 189.059 59.6694 191.408 61.0651H194.908V74.0651L189.908 77.5651C189.718 77.8566 190.739 84.8317 193.408 83.0651C196.076 81.2985 198.02 80.8017 200.908 81.5651C207.337 83.2648 205.948 90.1459 199.908 98.5651C211.35 107.245 227.408 102.565 234.908 95.5651C242.408 88.5648 243.908 79.5654 242.908 71.0651C241.908 62.5648 238.16 58.62 229.408 54.0651C230.393 47.1779 231.907 40.5648 229.408 32.0651C226.908 23.5654 217.908 9.56512 205.408 9.56512C192.907 9.56512 190.49 10.8472 178.908 11.0651C174.554 6.83143 172.062 4.5094 166.408 1.56512C166.408 1.56512 152.407 -2.93518 143.408 6.56512C134.408 16.0654 134.125 35.706 141.908 57.0651Z" fill="black" stroke="black"/>
<path d="M160.908 44.5654L160.408 49.5654L165.408 53.5654L169.408 50.0654L160.908 44.5654Z" fill="black"/>
<path d="M164.549 50.7439C167.661 53.7553 166.855 59.1955 163.321 62.8489C159.787 66.5023 154.376 67.4891 151.263 64.478C148.15 61.4666 148.956 56.0251 152.49 52.3716C156.025 48.7183 161.436 47.7325 164.549 50.7439Z" fill="white" stroke="black" stroke-width="1.5"/>
<path d="M147.408 50.5654L151.408 53.0654" stroke="black" stroke-width="2"/>
<ellipse cx="153.829" cy="62.5115" rx="1.92102" ry="2.23434" transform="rotate(41.8107 153.829 62.5115)" fill="black"/>
<path d="M185.369 60.7836L180.662 62.5427L175.519 58.7287L177.883 53.9681L185.369 60.7836Z" fill="black"/>
<path d="M178.466 58.84C174.76 56.5986 169.706 58.7659 167.075 63.1149C164.444 67.4641 164.87 72.9479 168.576 75.1898C172.282 77.4316 177.338 75.2639 179.969 70.9146C182.599 66.5653 182.172 61.0818 178.466 58.84Z" fill="white" stroke="black" stroke-width="1.5"/>
<path d="M190.908 78.5654L180.908 70.2033" stroke="black" stroke-width="2"/>
<path d="M164.408 61.0659L165.639 61.8865L167.408 63.0659" stroke="black" stroke-width="4"/>
<path d="M156.908 71.5654L165.908 62.5654" stroke="black" stroke-width="2"/>
<ellipse cx="1.92102" cy="2.23434" rx="1.92102" ry="2.23434" transform="matrix(-0.834768 -0.550601 -0.550601 0.834768 172.656 71.3994)" fill="black"/>
<path d="M121.908 164.065C129.026 163.828 133.05 165.405 139.761 170.108C140.141 170.375 140.655 170.347 141.007 170.045C148.623 163.489 154.129 161.37 164.908 159.565M151.408 166.065C157.027 163.865 160.358 163.243 166.908 163.565" stroke="black" stroke-width="2"/>
<path d="M8.90796 215.565C14.568 201.707 22.908 193.565 33.408 193.565C43.908 193.565 46.39 203.001 43.908 219.565M0.907959 215.565L15.6398 183.646C15.8033 183.292 16.1577 183.065 16.5478 183.065H64.8378C65.5694 183.065 66.0533 183.825 65.7439 184.488L52.408 213.065" stroke="black" stroke-width="2"/>
<path d="M63.6565 195.437L62.0647 191.457C61.9645 191.207 61.9698 190.926 62.0794 190.68L64.2819 185.724C64.7048 184.772 66.119 185.02 66.1932 186.059L66.8314 194.994C66.8728 195.573 66.4143 196.065 65.834 196.065H64.585C64.1761 196.065 63.8084 195.816 63.6565 195.437Z" fill="black" stroke="black" stroke-width="2"/>
<path d="M19.408 219.065L15.408 205.065" stroke="black" stroke-width="2"/>
<path d="M11.408 190.565L5.15112 159.281C5.02608 158.656 5.5102 158.075 6.1477 158.085L66.6416 159.053C67.0938 159.06 67.4848 159.37 67.5953 159.809L82.408 218.565" stroke="black" stroke-width="2"/>
<path d="M65.908 164.065L77.408 210.565" stroke="black" stroke-width="2"/>
<path d="M23.408 80.5654L67.408 63.5654C70.4467 63.9298 71.1529 64.8218 69.908 68.0654L24.908 86.0654" stroke="black" stroke-width="2"/>
<circle cx="20.908" cy="84.5" r="2" fill="black"/>
<path d="M57.408 53.5664C64.6078 49.8918 69.2778 49.0358 78.408 49.0664C77.5472 46.9548 76.408 45.5673 78.908 44.5664C81.408 43.5655 95.408 42.5654 101.908 48.0664" stroke="black" stroke-width="2"/>
<path d="M90.408 39.0654C98.3454 38.4256 102.381 39.7727 108.908 44.5654" stroke="black" stroke-width="2"/>
<path d="M40.908 74.5L54.4079 69.4998L56.4079 72.4998L44.4793 77.1761C44.9555 76.3863 42.6536 75.7521 41.408 74.9167C41.2092 74.7834 41.0373 74.645 40.908 74.5Z" fill="white"/>
<path d="M43.0231 77.3597C43.0231 77.3597 40.0745 75.4537 41.1401 74.633C42.2058 73.8124 44.9913 77.0439 44.906 77.3597C44.8208 77.6754 43.0231 77.3597 43.0231 77.3597Z" fill="white"/>
</svg>
