<svg width="610" height="920" viewBox="0 0 610 920" fill="none" xmlns="http://www.w3.org/2000/svg">
<g clip-path="url(#clip0_344_2996)">
<rect width="700" height="920" fill="#DCC6F5"/>
<line x1="-77.4994" y1="914.466" x2="815.501" y2="915.464" stroke="white"/>
<line x1="-77.4994" y1="853.469" x2="815.501" y2="854.466" stroke="white"/>
<line x1="-77.4994" y1="792.471" x2="815.501" y2="793.468" stroke="white"/>
<line x1="-77.4994" y1="731.473" x2="815.501" y2="732.471" stroke="white"/>
<line x1="-77.4994" y1="670.475" x2="815.501" y2="671.473" stroke="white"/>
<line x1="-77.4994" y1="609.478" x2="815.501" y2="610.475" stroke="white"/>
<line x1="-77.4994" y1="548.48" x2="815.501" y2="549.478" stroke="white"/>
<line x1="-77.4994" y1="487.482" x2="815.501" y2="488.48" stroke="white"/>
<line x1="-77.4994" y1="426.484" x2="815.501" y2="427.482" stroke="white"/>
<line x1="-77.4994" y1="365.487" x2="815.501" y2="366.484" stroke="white"/>
<line x1="-77.4994" y1="304.489" x2="815.501" y2="305.487" stroke="white"/>
<line x1="-77.4994" y1="243.491" x2="815.501" y2="244.489" stroke="white"/>
<line x1="-77.4994" y1="182.493" x2="815.501" y2="183.491" stroke="white"/>
<line x1="-77.4994" y1="121.495" x2="815.501" y2="122.493" stroke="white"/>
<line x1="-77.4994" y1="60.4976" x2="815.501" y2="61.4953" stroke="white"/>
<line x1="-77.4994" y1="-0.500244" x2="815.501" y2="0.497521" stroke="white"/>
<line x1="1.4978" y1="1.50056" x2="0.500037" y2="894.501" stroke="white"/>
<line x1="62.4955" y1="1.50056" x2="61.4977" y2="894.501" stroke="white"/>
<line x1="123.493" y1="1.50056" x2="122.496" y2="894.501" stroke="white"/>
<line x1="184.491" y1="1.50056" x2="183.493" y2="894.501" stroke="white"/>
<line x1="245.489" y1="1.50056" x2="244.491" y2="894.501" stroke="white"/>
<line x1="306.487" y1="1.50056" x2="305.489" y2="894.501" stroke="white"/>
<line x1="367.484" y1="1.50056" x2="366.487" y2="894.501" stroke="white"/>
<line x1="428.482" y1="1.50056" x2="427.484" y2="894.501" stroke="white"/>
<line x1="489.48" y1="1.50056" x2="488.482" y2="894.501" stroke="white"/>
<line x1="550.478" y1="1.50056" x2="549.48" y2="894.501" stroke="white"/>
<line x1="611.475" y1="1.50056" x2="610.478" y2="894.501" stroke="white"/>
</g>
<defs>
<clipPath id="clip0_344_2996">
<rect width="700" height="920" fill="white"/>
</clipPath>
</defs>
</svg>
