<svg width="124" height="66" viewBox="0 0 124 66" fill="none" xmlns="http://www.w3.org/2000/svg">
<g opacity="0.8">
<rect x="0.5" y="0.5" width="123" height="65" rx="29.5" fill="white"/>
<rect x="0.5" y="0.5" width="123" height="65" rx="29.5" stroke="#8A8A94"/>
<circle cx="33" cy="33" r="25" fill="#867AFF"/>
<path d="M36.1925 32.7525L39.8887 29.0563L27.95 22.3463C27.1588 21.9188 26.4175 21.8588 25.7675 22.3263L36.1925 32.7525ZM40.5187 37.08L44.3612 34.9188C45.1112 34.4988 45.5225 33.9038 45.5225 33.2438C45.5225 32.585 45.1112 31.9888 44.3625 31.5688L40.8837 29.615L36.9675 33.53L40.5187 37.08ZM25.125 23.235C25.045 23.4813 25 23.7563 25 24.0575V42.4388C25 42.915 25.105 43.325 25.295 43.6513L35.4162 33.5288L25.125 23.235ZM36.1925 34.3038L26.1275 44.37C26.32 44.4438 26.5275 44.4825 26.7462 44.4825C27.1362 44.4825 27.5425 44.3675 27.9562 44.1375L39.525 37.6413L36.1925 34.3038Z" fill="white"/>
<path d="M97.1336 33.7027C97.1652 37.1039 100.117 38.2357 100.15 38.2501C100.125 38.3299 99.6783 39.863 98.5947 41.4466C97.6579 42.8158 96.6857 44.1798 95.1542 44.2081C93.6493 44.2358 93.1654 43.3157 91.4449 43.3157C89.725 43.3157 89.1873 44.1799 87.7628 44.2359C86.2845 44.2918 85.1588 42.7554 84.2143 41.3913C82.2843 38.601 80.8093 33.5065 82.7898 30.0677C83.7736 28.36 85.5319 27.2786 87.4402 27.2509C88.8919 27.2232 90.262 28.2275 91.1495 28.2275C92.0364 28.2275 93.7014 27.0197 95.4519 27.1971C96.1846 27.2276 98.2416 27.4931 99.5624 29.4264C99.456 29.4924 97.1081 30.8593 97.1336 33.7027ZM94.3054 25.3511C95.0902 24.401 95.6184 23.0785 95.4743 21.7626C94.343 21.8081 92.9751 22.5165 92.1636 23.466C91.4364 24.3068 90.7995 25.6526 90.9714 26.9424C92.2323 27.04 93.5205 26.3017 94.3054 25.3511Z" fill="black"/>
</g>
</svg>
