<svg width="278" height="54" viewBox="0 0 278 54" fill="none" xmlns="http://www.w3.org/2000/svg">
<rect width="278" height="54" rx="27" fill="#F9F9F7"/>
<rect x="12" y="12" width="30" height="30" rx="15" fill="#857AFF"/>
<path d="M25.5962 25.6603C24.9545 25.6603 24.4052 25.4318 23.9483 24.9749C23.4913 24.5179 23.2629 23.9686 23.2629 23.327C23.2629 22.6853 23.4913 22.136 23.9483 21.6791C24.4052 21.2221 24.9545 20.9937 25.5962 20.9937C26.2378 20.9937 26.7871 21.2221 27.2441 21.6791C27.701 22.136 27.9295 22.6853 27.9295 23.327C27.9295 23.9686 27.701 24.5179 27.2441 24.9749C26.7871 25.4318 26.2378 25.6603 25.5962 25.6603ZM25.5962 24.6603C25.9628 24.6603 26.2767 24.5297 26.5378 24.2686C26.7989 24.0075 26.9295 23.6936 26.9295 23.327C26.9295 22.9603 26.7989 22.6464 26.5378 22.3853C26.2767 22.1242 25.9628 21.9936 25.5962 21.9936C25.2295 21.9936 24.9156 22.1242 24.6545 22.3853C24.3934 22.6464 24.2628 22.9603 24.2628 23.327C24.2628 23.6936 24.3934 24.0075 24.6545 24.2686C24.9156 24.5297 25.2295 24.6603 25.5962 24.6603ZM32.7013 33.0064L30.7474 31.0526C30.5227 31.1944 30.2855 31.3056 30.0359 31.3859C29.7863 31.4662 29.5291 31.5064 29.2642 31.5064C28.5282 31.5064 27.9039 31.2495 27.3911 30.7357C26.8782 30.2219 26.6218 29.5979 26.6218 28.8639C26.6218 28.1299 26.8787 27.5065 27.3926 26.9936C27.9064 26.4808 28.5303 26.2244 29.2643 26.2244C29.9984 26.2244 30.6218 26.4812 31.1346 26.9947C31.6474 27.5082 31.9038 28.1318 31.9038 28.8654C31.9038 29.1312 31.8637 29.3889 31.7833 29.6385C31.703 29.8881 31.5919 30.1252 31.45 30.35L33.4038 32.3039L32.7013 33.0064ZM29.2628 30.5064C29.7252 30.5064 30.1143 30.3485 30.4301 30.0327C30.746 29.7169 30.9039 29.3278 30.9039 28.8654C30.9039 28.403 30.746 28.0139 30.4301 27.6981C30.1143 27.3823 29.7252 27.2244 29.2628 27.2244C28.8004 27.2244 28.4113 27.3823 28.0955 27.6981C27.7797 28.0139 27.6218 28.403 27.6218 28.8654C27.6218 29.3278 27.7797 29.7169 28.0955 30.0327C28.4113 30.3485 28.8004 30.5064 29.2628 30.5064ZM20.5962 30.7372V29.2654C20.5962 28.9346 20.6832 28.6306 20.8571 28.3532C21.031 28.0759 21.2697 27.8603 21.5731 27.7064C22.097 27.4432 22.7284 27.2094 23.4673 27.0052C24.2062 26.8009 25.0154 26.7159 25.8949 26.75C25.7958 26.9073 25.7097 27.0692 25.6367 27.2358C25.5637 27.4024 25.5058 27.5751 25.4629 27.7539C24.7321 27.7624 24.0671 27.8592 23.468 28.0442C22.8688 28.2293 22.3936 28.4141 22.0423 28.5987C21.9013 28.6671 21.7917 28.7608 21.7135 28.8799C21.6353 28.999 21.5962 29.1275 21.5962 29.2654V29.7372H25.3859C25.4244 29.9133 25.477 30.0857 25.5436 30.2545C25.6103 30.4233 25.6889 30.5842 25.7795 30.7372H20.5962Z" fill="#F9F9F7"/>
<path d="M63.441 34.043L62.973 35.096C62.451 35.006 59.688 34.493 59.562 32.144C56.826 31.811 54.909 29.354 54.909 25.349C54.909 21.02 57.141 18.563 60.219 18.563C63.315 18.563 65.538 21.02 65.538 25.349C65.538 29.336 63.63 31.784 60.912 32.135C61.056 33.485 62.991 33.953 63.441 34.043ZM60.219 30.794C62.433 30.794 63.972 28.994 63.972 25.349C63.972 21.695 62.415 19.958 60.219 19.958C58.032 19.958 56.466 21.695 56.466 25.349C56.466 29.003 58.032 30.794 60.219 30.794ZM71.3503 32.171C68.6053 32.171 67.8223 30.02 67.8223 28.391V22.442H69.3613V28.022C69.3613 29.48 69.8833 30.758 71.6563 30.758C73.3033 30.758 74.4283 29.003 74.4283 27.509V22.442H75.9583V32H74.4283V30.578C73.7353 31.514 72.6733 32.171 71.3503 32.171ZM79.4703 20.246C78.9033 20.246 78.4263 19.904 78.4263 19.355C78.4263 18.815 78.9033 18.473 79.4703 18.473C80.0283 18.473 80.5053 18.815 80.5053 19.355C80.5053 19.913 80.0283 20.246 79.4703 20.246ZM78.7053 32V22.442H80.2173V32H78.7053ZM89.7405 30.596V32H82.3605V30.65L87.9405 23.846H82.5855V22.442H89.6595V23.792L84.0975 30.596H89.7405ZM100.187 32.18C97.4333 32.18 95.8133 30.866 95.8133 28.229V27.617H97.3523V28.202C97.3523 30.038 98.3333 30.794 100.169 30.794C102.068 30.794 103.049 30.182 103.049 28.733C103.049 27.203 101.708 26.546 99.7553 25.943C97.5323 25.259 95.9123 24.116 95.9123 21.911C95.9123 19.751 97.6043 18.563 100.106 18.563C102.752 18.563 104.453 19.787 104.453 22.307V22.982H102.914V22.37C102.914 20.624 101.942 19.949 100.133 19.949C98.3963 19.949 97.4063 20.525 97.4063 21.911C97.4063 23.477 98.8193 24.107 100.763 24.746C103.121 25.52 104.552 26.474 104.552 28.679C104.552 30.893 102.905 32.18 100.187 32.18ZM110.626 32.144C109.447 32.144 108.268 31.739 108.268 29.741V23.792H105.937V22.442H107.431C108.25 22.442 108.268 22.397 108.268 21.443V19.274H109.807V22.442H112.795V23.792H109.807V29.165C109.807 30.191 109.96 30.794 110.824 30.794C111.166 30.794 111.508 30.722 111.67 30.659V31.991C111.463 32.063 111.085 32.144 110.626 32.144ZM117.779 32.18C115.592 32.18 114.161 31.109 114.161 29.309C114.161 27.437 115.718 26.537 118.067 26.303C120.416 26.069 121.325 25.907 121.325 25.376V25.349C121.325 24.242 120.398 23.702 118.697 23.702C116.915 23.702 115.889 24.287 115.889 25.664H114.377C114.377 23.531 116.15 22.298 118.706 22.298C121.037 22.298 122.864 23.387 122.864 25.43V30.2C122.864 30.623 122.891 31.037 122.98 31.334C123.089 31.694 123.242 31.919 123.323 32H121.784C121.721 31.937 121.586 31.694 121.478 31.397C121.424 31.262 121.388 31.073 121.37 30.866C120.713 31.658 119.453 32.18 117.779 32.18ZM118.021 30.803C119.876 30.803 121.325 29.948 121.325 28.292V27.086C120.56 27.32 119.507 27.464 118.436 27.563C116.618 27.734 115.7 28.112 115.7 29.219C115.7 30.263 116.438 30.803 118.021 30.803ZM125.408 32V22.442H126.938V23.693C127.433 22.892 128.297 22.298 129.611 22.298C130.376 22.298 130.889 22.469 131.006 22.541L130.61 24.044C130.493 23.963 130.133 23.783 129.467 23.783C127.469 23.783 126.938 25.412 126.938 26.771V32H125.408ZM136.43 32.144C135.251 32.144 134.072 31.739 134.072 29.741V23.792H131.741V22.442H133.235C134.054 22.442 134.072 22.397 134.072 21.443V19.274H135.611V22.442H138.599V23.792H135.611V29.165C135.611 30.191 135.764 30.794 136.628 30.794C136.97 30.794 137.312 30.722 137.474 30.659V31.991C137.267 32.063 136.889 32.144 136.43 32.144ZM149.352 28.994C149.226 30.524 147.669 32.189 144.762 32.189C141.891 32.189 139.875 30.155 139.875 27.248C139.875 24.323 141.918 22.298 144.771 22.298C147.669 22.298 149.496 24.35 149.496 27.14C149.496 27.329 149.478 27.725 149.46 27.833H141.396C141.621 29.678 142.881 30.785 144.807 30.785C146.832 30.785 147.732 29.831 147.822 28.994H149.352ZM144.789 23.684C142.998 23.684 141.702 24.737 141.423 26.465H147.849C147.75 24.926 146.697 23.684 144.789 23.684ZM155.823 32.18C153.465 32.18 151.512 30.425 151.512 27.212C151.512 24.062 153.501 22.298 155.823 22.298C157.02 22.298 158.163 22.793 158.955 23.639V17.933H160.494V32H158.955V30.803C158.181 31.658 157.074 32.18 155.823 32.18ZM156.039 30.731C157.632 30.731 158.955 29.462 158.955 27.842V26.492C158.955 24.935 157.569 23.702 156.039 23.702C154.338 23.702 153.087 24.827 153.087 27.212C153.087 29.588 154.347 30.731 156.039 30.731ZM169.178 32L167.072 18.725H168.656L170.357 30.695L173.048 18.725H175.082L177.764 30.695L179.465 18.725H181.058L178.934 32H176.567L174.065 20.435L171.554 32H169.178ZM184.06 20.246C183.493 20.246 183.016 19.904 183.016 19.355C183.016 18.815 183.493 18.473 184.06 18.473C184.618 18.473 185.095 18.815 185.095 19.355C185.095 19.913 184.618 20.246 184.06 20.246ZM183.295 32V22.442H184.807V32H183.295ZM191.432 32.144C190.253 32.144 189.074 31.739 189.074 29.741V23.792H186.743V22.442H188.237C189.056 22.442 189.074 22.397 189.074 21.443V19.274H190.613V22.442H193.601V23.792H190.613V29.165C190.613 30.191 190.766 30.794 191.63 30.794C191.972 30.794 192.314 30.722 192.476 30.659V31.991C192.269 32.063 191.891 32.144 191.432 32.144ZM195.563 32V17.933H197.093V23.576C197.831 22.793 198.938 22.298 200.234 22.298C202.529 22.298 203.942 23.756 203.942 26.195V32H202.412V26.537C202.412 24.701 201.656 23.756 199.955 23.756C198.245 23.756 197.093 24.845 197.093 26.303V32H195.563ZM210.427 32L214.081 18.689H216.475L220.102 32H218.518L217.591 28.481H212.947L212.011 32H210.427ZM213.307 27.131H217.231L215.278 19.724L213.307 27.131ZM228.107 32H226.568V18.725H230.294C233.363 18.725 234.875 20.615 234.875 22.973C234.875 25.331 233.3 27.365 230.294 27.365H228.107V32ZM230.105 20.075H228.107V26.015H230.105C232.265 26.015 233.327 24.791 233.327 22.973C233.327 21.146 232.328 20.075 230.105 20.075ZM245.663 28.994C245.537 30.524 243.98 32.189 241.073 32.189C238.202 32.189 236.186 30.155 236.186 27.248C236.186 24.323 238.229 22.298 241.082 22.298C243.98 22.298 245.807 24.35 245.807 27.14C245.807 27.329 245.789 27.725 245.771 27.833H237.707C237.932 29.678 239.192 30.785 241.118 30.785C243.143 30.785 244.043 29.831 244.133 28.994H245.663ZM241.1 23.684C239.309 23.684 238.013 24.737 237.734 26.465H244.16C244.061 24.926 243.008 23.684 241.1 23.684ZM257.299 28.994C257.173 30.524 255.616 32.189 252.709 32.189C249.838 32.189 247.822 30.155 247.822 27.248C247.822 24.323 249.865 22.298 252.718 22.298C255.616 22.298 257.443 24.35 257.443 27.14C257.443 27.329 257.425 27.725 257.407 27.833H249.343C249.568 29.678 250.828 30.785 252.754 30.785C254.779 30.785 255.679 29.831 255.769 28.994H257.299ZM252.736 23.684C250.945 23.684 249.649 24.737 249.37 26.465H255.796C255.697 24.926 254.644 23.684 252.736 23.684ZM259.828 32V22.442H261.358V23.693C261.853 22.892 262.717 22.298 264.031 22.298C264.796 22.298 265.309 22.469 265.426 22.541L265.03 24.044C264.913 23.963 264.553 23.783 263.887 23.783C261.889 23.783 261.358 25.412 261.358 26.771V32H259.828Z" fill="#1A1C1B"/>
</svg>
