<svg width="23" height="22" viewBox="0 0 23 22" fill="none" xmlns="http://www.w3.org/2000/svg">
<mask id="path-1-outside-1_344_2941" maskUnits="userSpaceOnUse" x="-0.243774" y="-0.2677" width="23" height="22" fill="black">
<rect fill="white" x="-0.243774" y="-0.2677" width="23" height="22"/>
<path d="M5.20023 20.1063L7.55423 13.1103L1.87823 9.3043H8.83023L11.3162 1.8023L13.8462 9.3043H20.7542L15.0782 13.1103L17.4762 20.1063L11.3162 15.6403L5.20023 20.1063Z"/>
</mask>
<path d="M5.20023 20.1063L7.55423 13.1103L1.87823 9.3043H8.83023L11.3162 1.8023L13.8462 9.3043H20.7542L15.0782 13.1103L17.4762 20.1063L11.3162 15.6403L5.20023 20.1063Z" fill="#867AFF"/>
<path d="M5.20023 20.1063L4.65863 19.9241L4.0853 21.628L5.53721 20.5678L5.20023 20.1063ZM7.55423 13.1103L8.09582 13.2925L8.23503 12.8788L7.87247 12.6357L7.55423 13.1103ZM1.87823 9.3043V8.73287H-1.2517e-06L1.55998 9.77891L1.87823 9.3043ZM8.83023 9.3043V9.87573H9.24285L9.37265 9.48405L8.83023 9.3043ZM11.3162 1.8023L11.8577 1.61969L11.3115 3.05176e-05L10.7738 1.62255L11.3162 1.8023ZM13.8462 9.3043L13.3048 9.48691L13.4359 9.87573H13.8462V9.3043ZM20.7542 9.3043L21.0725 9.77891L22.6325 8.73287H20.7542V9.3043ZM15.0782 13.1103L14.76 12.6357L14.3953 12.8802L14.5377 13.2956L15.0782 13.1103ZM17.4762 20.1063L17.1408 20.5689L18.602 21.6283L18.0168 19.921L17.4762 20.1063ZM11.3162 15.6403L11.6516 15.1777L11.315 14.9336L10.9792 15.1788L11.3162 15.6403ZM5.20023 20.1063L5.74182 20.2885L8.09582 13.2925L7.55423 13.1103L7.01263 12.9281L4.65863 19.9241L5.20023 20.1063ZM7.55423 13.1103L7.87247 12.6357L2.19647 8.82969L1.87823 9.3043L1.55998 9.77891L7.23598 13.5849L7.55423 13.1103ZM1.87823 9.3043V9.87573H8.83023V9.3043V8.73287H1.87823V9.3043ZM8.83023 9.3043L9.37265 9.48405L11.8586 1.98205L11.3162 1.8023L10.7738 1.62255L8.2878 9.12455L8.83023 9.3043ZM11.3162 1.8023L10.7748 1.98491L13.3048 9.48691L13.8462 9.3043L14.3877 9.12169L11.8577 1.61969L11.3162 1.8023ZM13.8462 9.3043V9.87573H20.7542V9.3043V8.73287H13.8462V9.3043ZM20.7542 9.3043L20.436 8.82969L14.76 12.6357L15.0782 13.1103L15.3965 13.5849L21.0725 9.77891L20.7542 9.3043ZM15.0782 13.1103L14.5377 13.2956L16.9357 20.2916L17.4762 20.1063L18.0168 19.921L15.6188 12.925L15.0782 13.1103ZM17.4762 20.1063L17.8116 19.6437L11.6516 15.1777L11.3162 15.6403L10.9808 16.1029L17.1408 20.5689L17.4762 20.1063ZM11.3162 15.6403L10.9792 15.1788L4.86324 19.6448L5.20023 20.1063L5.53721 20.5678L11.6532 16.1018L11.3162 15.6403Z" fill="#867AFF" mask="url(#path-1-outside-1_344_2941)"/>
</svg>
